<?xml version="1.0" encoding="UTF-8"?>
<svg version="1.1" xmlns="http://www.w3.org/2000/svg" width="32" height="32">
<path d="M0 0 C10.56 0 21.12 0 32 0 C32 10.56 32 21.12 32 32 C21.44 32 10.88 32 0 32 C0 21.44 0 10.88 0 0 Z " fill="#F4FAFE" transform="translate(0,0)"/>
<path d="M0 0 C10.56 0 21.12 0 32 0 C32.061875 2.76375 32.12375 5.5275 32.1875 8.375 C32.22846802 9.67896729 32.22846802 9.67896729 32.27026367 11.00927734 C32.29211768 13.0080965 32.14920378 15.00663756 32 17 C31.01 17.66 30.02 18.32 29 19 C29.33 15.7 29.66 12.4 30 9 C29.01 9.33 28.02 9.66 27 10 C25.97718482 12.09719872 25.97718482 12.09719872 25.3125 14.5625 C25.06113281 15.38878906 24.80976563 16.21507813 24.55078125 17.06640625 C24.36902344 17.70449219 24.18726562 18.34257812 24 19 C23.34 19 22.68 19 22 19 C22 16.03 22 13.06 22 10 C21.01 10 20.02 10 19 10 C18.67 12.31 18.34 14.62 18 17 C16.68 17.33 15.36 17.66 14 18 C14.96355353 7.44191344 14.96355353 7.44191344 16 3 C14.68 3 13.36 3 12 3 C11.87625 4.216875 11.7525 5.43375 11.625 6.6875 C11.18804992 10.0633883 10.72252168 13.00825182 9 16 C7.68 16.33 6.36 16.66 5 17 C5.33 12.71 5.66 8.42 6 4 C4.35 3.67 2.7 3.34 1 3 C0.67 2.01 0.34 1.02 0 0 Z " fill="#259EEE" transform="translate(0,0)"/>
<path d="M0 0 C0.99 0.66 1.98 1.32 3 2 C6.63939932 1.68269476 6.63939932 1.68269476 10 1 C10 1.66 10 2.32 10 3 C11.98 2.34 13.96 1.68 16 1 C16 4.63 16 8.26 16 12 C5.44 12 -5.12 12 -16 12 C-16 11.01 -16 10.02 -16 9 C-14.741875 9.0825 -13.48375 9.165 -12.1875 9.25 C-8.7448438 9.30639781 -8.7448438 9.30639781 -6.0625 7.1875 C-4.89790296 4.91043228 -4.89790296 4.91043228 -4 2 C-1.9375 0.8125 -1.9375 0.8125 0 0 Z " fill="#239DEE" transform="translate(16,20)"/>
<path d="M0 0 C1.32 0.33 2.64 0.66 4 1 C3.67 3.97 3.34 6.94 3 10 C5.19117773 9.17798016 5.19117773 9.17798016 5.8515625 6.93359375 C6.10679688 6.10988281 6.36203125 5.28617188 6.625 4.4375 C6.88539062 3.61121094 7.14578125 2.78492188 7.4140625 1.93359375 C7.60742188 1.29550781 7.80078125 0.65742188 8 0 C8.99 0 9.98 0 11 0 C11 2.97 11 5.94 11 9 C11.66 8.67 12.32 8.34 13 8 C13 9.32 13 10.64 13 12 C10 14 10 14 7 14 C7 13.34 7 12.68 7 12 C6.01 12.66 5.02 13.32 4 14 C0.02382887 13.68609175 -2.70155506 12.16754953 -6 10 C-5.67 9.01 -5.34 8.02 -5 7 C-5 7.66 -5 8.32 -5 9 C-4.01 8.67 -3.02 8.34 -2 8 C-1.855625 6.865625 -1.71125 5.73125 -1.5625 4.5625 C-1 1 -1 1 0 0 Z " fill="#DEF0FC" transform="translate(19,9)"/>
<path d="M0 0 C1.65 0.33 3.3 0.66 5 1 C6.59789351 5.95346987 5.28306814 10.13282415 4 15 C4.99 15.33 5.98 15.66 7 16 C7 16.99 7 17.98 7 19 C4.69 18.34 2.38 17.68 0 17 C-0.21192221 11.80790596 0.4087311 7.873261 2 3 C1.01 3 0.02 3 -1 3 C-0.67 2.01 -0.34 1.02 0 0 Z " fill="#EEF7FD" transform="translate(1,2)"/>
<path d="M0 0 C0.99 0 1.98 0 3 0 C2.67 4.62 2.34 9.24 2 14 C4.97 14.495 4.97 14.495 8 15 C7 17 7 17 0 20 C0 13.4 0 6.8 0 0 Z " fill="#31A3EF" transform="translate(0,5)"/>
<path d="M0 0 C0.33 0.99 0.66 1.98 1 3 C-0.9375 5.6875 -0.9375 5.6875 -3 8 C-4.32 7.67 -5.64 7.34 -7 7 C-6.6875 4.625 -6.6875 4.625 -6 2 C-3 0 -3 0 0 0 Z " fill="#B0DCF8" transform="translate(7,22)"/>
</svg>